<?xml version="1.0" encoding="UTF-8"?>
<svg version="1.1" xmlns="http://www.w3.org/2000/svg" width="500" height="500">
<path d="M0 0 C10.55781068 7.30132471 20.26968183 12.77273333 33.38891602 12.55810547 C34.90844485 12.54544204 36.42797623 12.53308238 37.94750977 12.52099609 C40.31233967 12.49639797 42.6770311 12.46861022 45.04174805 12.43481445 C60.7357806 12.22505418 75.74861676 12.56706999 88.70141602 22.53076172 C88.70141602 23.19076172 88.70141602 23.85076172 88.70141602 24.53076172 C89.36141602 24.53076172 90.02141602 24.53076172 90.70141602 24.53076172 C90.70141602 25.19076172 90.70141602 25.85076172 90.70141602 26.53076172 C91.36141602 26.53076172 92.02141602 26.53076172 92.70141602 26.53076172 C98.47174007 33.38407915 101.80250134 41.85332612 105.13500977 50.06201172 C107.95506788 56.91804912 110.64434712 63.04688139 115.70141602 68.53076172 C116.15387695 69.03607422 116.60633789 69.54138672 117.07250977 70.06201172 C121.53235047 74.41759641 127.02745062 76.75817777 132.57373047 79.42700195 C146.87734768 86.41233534 158.59119863 96.24293983 164.01391602 111.46826172 C166.861267 121.31917763 166.279556 131.4900084 164.93945312 141.55493164 C163.58432222 152.80321307 164.40173572 161.43613259 169.70141602 171.53076172 C172.70141602 177.53076172 172.70141602 177.53076172 172.70141602 179.53076172 C173.36141602 179.53076172 174.02141602 179.53076172 174.70141602 179.53076172 C183.34469609 193.90741758 187.74098862 208.02563931 183.70141602 224.53076172 C181.48750829 232.240936 178.17461471 238.61512876 173.63891602 245.15576172 C164.37030834 258.61342659 163.34203308 270.61912109 165.46777344 286.52807617 C167.13260526 300.79831177 165.53089762 313.46948039 156.67407227 325.22216797 C148.90273706 334.31693848 139.06687724 340.47536469 128.38891602 345.65576172 C120.87009618 349.24209048 120.87009618 349.24209048 115.70141602 355.53076172 C115.04141602 355.53076172 114.38141602 355.53076172 113.70141602 355.53076172 C113.47454102 356.19076172 113.24766602 356.85076172 113.01391602 357.53076172 C111.93385849 359.99946464 110.8376891 361.90806469 109.36157227 364.12841797 C106.57193134 368.53884179 104.7132033 373.1197872 102.82641602 377.96826172 C99.961696 385.00205787 97.11701069 391.0689786 91.70141602 396.53076172 C91.0246582 397.23330078 90.34790039 397.93583984 89.65063477 398.65966797 C80.08896998 407.88166438 69.87221317 410.77445894 56.78344727 410.55810547 C55.26587149 410.54545047 53.74829324 410.53309016 52.23071289 410.52099609 C49.87898684 410.49633874 47.52739654 410.46845456 45.17578125 410.43481445 C25.94546787 410.17781668 13.60383227 413.41690431 -2.02978516 424.84155273 C-13.91175457 433.41042136 -27.40600313 439.36586647 -42.29858398 437.53076172 C-53.24897786 435.13674848 -62.00101833 430.84183659 -71.29858398 424.53076172 C-84.55647655 415.66516736 -95.35603961 410.20734376 -111.60327148 410.53857422 C-113.17227542 410.55609147 -114.74128626 410.57299966 -116.31030273 410.58935547 C-118.74133068 410.62021478 -121.17199989 410.65573147 -123.6027832 410.70214844 C-138.3083547 410.96724786 -150.10495433 409.5618026 -161.64624023 399.47998047 C-167.94436097 393.05222432 -171.54470568 385.74471162 -175.27954102 377.68896484 C-176.3399082 375.4432423 -177.44891362 373.22811319 -178.57592773 371.01513672 C-178.9477417 370.28504395 -179.31955566 369.55495117 -179.70263672 368.80273438 C-180.42096255 367.39552623 -181.14048378 365.98892751 -181.86132812 364.58300781 C-184.29858398 359.75273164 -184.29858398 359.75273164 -184.29858398 357.53076172 C-184.95858398 357.53076172 -185.61858398 357.53076172 -186.29858398 357.53076172 C-187.50236943 356.0594684 -188.70503416 354.58723376 -189.90014648 353.10888672 C-193.98351194 348.50084302 -200.09809537 345.98545852 -205.43530273 343.08935547 C-206.85262695 342.31785156 -206.85262695 342.31785156 -208.29858398 341.53076172 C-209.1506543 341.06798828 -210.00272461 340.60521484 -210.88061523 340.12841797 C-223.60933092 332.89209299 -233.2332212 323.21377047 -237.61499023 309.05029297 C-239.23535223 300.70774349 -238.9064871 291.84615542 -237.79858398 283.44091797 C-235.53863565 265.76741577 -240.20143659 254.76516511 -249.25170898 240.22119141 C-256.85111167 227.95014098 -259.96564635 215.90455475 -257.23608398 201.40576172 C-254.86462949 191.77981232 -250.2650753 183.7144952 -244.68139648 175.61669922 C-239.56477208 167.89840139 -237.00641063 160.25023779 -237.11108398 150.90576172 C-237.1175293 149.63474609 -237.12397461 148.36373047 -237.13061523 147.05419922 C-237.19997816 143.69620052 -237.19997816 143.69620052 -237.79418945 141.11547852 C-240.24153965 128.57428947 -239.73049675 113.22182214 -232.87280273 102.24951172 C-231.42768085 100.24799924 -229.915762 98.39527284 -228.29858398 96.53076172 C-227.55350586 95.56783203 -226.80842773 94.60490234 -226.04077148 93.61279297 C-223.23291975 90.25071167 -220.02251388 87.9563663 -216.36108398 85.59326172 C-215.38244385 84.94768311 -215.38244385 84.94768311 -214.3840332 84.2890625 C-210.02746668 81.47529356 -205.60753606 79.12822324 -200.92358398 76.90576172 C-186.40518006 69.85115959 -180.24354778 59.05856342 -174.79858398 44.34326172 C-172.23015417 37.43615245 -169.54813223 31.84648074 -164.29858398 26.53076172 C-163.64374023 25.82693359 -162.98889648 25.12310547 -162.31420898 24.39794922 C-151.66849296 13.86879213 -138.86204058 12.60376371 -124.51855469 12.50463867 C-119.39736 12.55039596 -114.27800574 12.62737146 -109.15795898 12.74560547 C-99.16256555 12.85825847 -91.12260424 11.64078278 -82.48608398 6.40576172 C-81.47932617 5.79732422 -80.47256836 5.18888672 -79.43530273 4.56201172 C-76.71527798 2.80060092 -74.06857817 0.96752799 -71.4362793 -0.92163086 C-47.79534968 -17.84879022 -23.30818497 -16.16595304 0 0 Z M49.70141602 111.53076172 C49.70141602 112.19076172 49.70141602 112.85076172 49.70141602 113.53076172 C49.04141602 113.53076172 48.38141602 113.53076172 47.70141602 113.53076172 C44.00789622 116.97173315 40.65716142 120.73494499 37.26391602 124.46826172 C32.19050842 130.01607419 26.93004086 135.34473759 21.58276367 140.62768555 C17.89866739 144.28336313 14.42590349 148.04346231 11.07250977 152.00732422 C9.16760219 154.12388819 6.9223113 155.75404549 4.70141602 157.53076172 C3.72477769 158.61877108 2.76920514 159.72579339 1.82641602 160.84326172 C-2.56488445 166.02047726 -7.45046932 170.70403538 -12.31958008 175.42651367 C-12.9610498 176.0564624 -13.60251953 176.68641113 -14.26342773 177.33544922 C-14.84729248 177.90247559 -15.43115723 178.46950195 -16.03271484 179.05371094 C-17.51549722 180.45964914 -17.51549722 180.45964914 -17.29858398 182.53076172 C-17.85545898 182.75763672 -18.41233398 182.98451172 -18.98608398 183.21826172 C-21.96017986 184.90626208 -24.01867263 186.99752689 -26.29858398 189.53076172 C-26.29858398 190.19076172 -26.29858398 190.85076172 -26.29858398 191.53076172 C-26.95858398 191.53076172 -27.61858398 191.53076172 -28.29858398 191.53076172 C-29.62859055 192.84659845 -29.62859055 192.84659845 -31.04858398 194.65576172 C-35.28404254 199.67690235 -39.95787456 204.21782661 -44.67456055 208.78125 C-45.27107422 209.36632324 -45.86758789 209.95139648 -46.48217773 210.55419922 C-47.02414795 211.07933105 -47.56611816 211.60446289 -48.12451172 212.14550781 C-49.51410492 213.48240409 -49.51410492 213.48240409 -49.29858398 215.53076172 C-49.95858398 215.53076172 -50.61858398 215.53076172 -51.29858398 215.53076172 C-52.54576918 217.00769156 -53.78893634 218.48873576 -54.98999023 220.00341797 C-56.55368152 221.82850243 -58.37470017 223.10566259 -60.29858398 224.53076172 C-60.29858398 225.19076172 -60.29858398 225.85076172 -60.29858398 226.53076172 C-60.88639648 226.77826172 -61.47420898 227.02576172 -62.07983398 227.28076172 C-64.62482858 228.71456149 -65.96772624 230.26715578 -67.79858398 232.53076172 C-70.10116337 235.37758715 -71.90504092 237.10190148 -75.29858398 238.53076172 C-104.70483398 209.12451172 -104.70483398 209.12451172 -106.58544922 207.24316406 C-108.01019374 205.81902867 -109.4372944 204.3972509 -110.86499023 202.97607422 C-112.7327534 201.09931701 -114.58038641 199.20852442 -116.41967773 197.30419922 C-117.52504921 196.1712918 -118.63051932 195.03848061 -119.73608398 193.90576172 C-120.28329102 193.33341797 -120.83049805 192.76107422 -121.39428711 192.17138672 C-125.65870129 187.83127288 -129.51602054 184.88490616 -135.73608398 184.09326172 C-142.45569308 184.91847687 -146.94908715 188.52225021 -151.29858398 193.53076172 C-151.29858398 194.19076172 -151.29858398 194.85076172 -151.29858398 195.53076172 C-152.16290039 195.90974609 -152.16290039 195.90974609 -153.04467773 196.29638672 C-158.85835899 199.48030921 -164.16441755 205.26164781 -166.29858398 211.53076172 C-167.02921457 217.37580638 -165.73880459 219.88588474 -162.29858398 224.53076172 C-160.01798808 226.94706797 -157.66856216 229.25698758 -155.27709961 231.56201172 C-153.20610014 233.57888603 -151.29723928 235.53259346 -149.58374023 237.86669922 C-149.15963867 238.41583984 -148.73553711 238.96498047 -148.29858398 239.53076172 C-147.63858398 239.53076172 -146.97858398 239.53076172 -146.29858398 239.53076172 C-146.08176971 240.07256577 -145.86495544 240.61436981 -145.64157104 241.17259216 C-143.83551401 244.3438727 -141.38402385 246.71558376 -138.81079102 249.26147461 C-137.97143005 250.10368309 -137.97143005 250.10368309 -137.1151123 250.96290588 C-135.26705509 252.81466282 -133.4119035 254.65912832 -131.55639648 256.50341797 C-130.26809842 257.79052352 -128.98017024 259.0779994 -127.69259644 260.36582947 C-124.99386632 263.06299602 -122.29181158 265.75677147 -119.5871582 268.44799805 C-116.12303768 271.89513759 -112.66552745 275.34881435 -109.21026802 278.80483341 C-106.55113007 281.4636992 -103.88939176 284.1199487 -101.22677231 286.77532768 C-99.9511541 288.04776708 -98.67613769 289.32081007 -97.40173721 290.59446907 C-95.61871121 292.3753227 -93.83242782 294.15284209 -92.04516602 295.92944336 C-91.52034637 296.45471619 -90.99552673 296.97998901 -90.45480347 297.5211792 C-85.23986417 302.69078563 -82.16202785 305.05403143 -74.83764648 305.60498047 C-69.84878661 305.45915226 -66.40774419 303.27020186 -62.29858398 300.53076172 C-62.29858398 299.87076172 -62.29858398 299.21076172 -62.29858398 298.53076172 C-61.63858398 298.53076172 -60.97858398 298.53076172 -60.29858398 298.53076172 C-58.63191732 297.19742839 -58.63191732 297.19742839 -57.29858398 295.53076172 C-57.29858398 294.87076172 -57.29858398 294.21076172 -57.29858398 293.53076172 C-56.63858398 293.53076172 -55.97858398 293.53076172 -55.29858398 293.53076172 C-55.29858398 292.87076172 -55.29858398 292.21076172 -55.29858398 291.53076172 C-54.63858398 291.53076172 -53.97858398 291.53076172 -53.29858398 291.53076172 C-53.29858398 290.87076172 -53.29858398 290.21076172 -53.29858398 289.53076172 C-52.63858398 289.53076172 -51.97858398 289.53076172 -51.29858398 289.53076172 C-49.6618289 287.9127667 -49.6618289 287.9127667 -47.98608398 285.84326172 C-45.23652394 282.56232603 -42.33691903 279.54684478 -39.29858398 276.53076172 C-38.30957574 275.54719551 -37.32064649 274.56354986 -36.33178711 273.57983398 C-35.80774292 273.05901749 -35.28369873 272.53820099 -34.74377441 272.00160217 C-32.38078294 269.65211066 -30.02055151 267.29985409 -27.66040039 264.94750977 C-26.4200843 263.71223561 -25.178874 262.47785867 -23.93676758 261.24438477 C-22.12788588 259.44770907 -20.32232149 257.64775483 -18.51733398 255.84716797 C-17.96823364 255.30322891 -17.4191333 254.75928986 -16.85339355 254.1988678 C-14.35477067 251.70060504 -11.96225363 249.18272153 -9.72241211 246.44848633 C-7.37651686 243.62457476 -4.92648266 241.09211902 -2.29858398 238.53076172 C-1.15994335 237.40443717 -0.02224079 236.27716385 1.11474609 235.14916992 C2.04514458 234.22845451 2.04514458 234.22845451 2.99433899 233.28913879 C5.77423962 230.53597726 8.54886125 227.77752122 11.32324219 225.01879883 C12.7908849 223.56129696 14.26030521 222.105583 15.73144531 220.65161133 C17.85761594 218.54956679 19.97737872 216.44124556 22.09594727 214.33154297 C22.75834915 213.67946365 23.42075104 213.02738434 24.10322571 212.35554504 C24.70773056 211.75119125 25.31223541 211.14683746 25.93505859 210.52416992 C26.47068924 209.9929805 27.00631989 209.46179108 27.55818176 208.914505 C28.9137255 207.57294039 28.9137255 207.57294039 28.70141602 205.53076172 C29.36141602 205.53076172 30.02141602 205.53076172 30.70141602 205.53076172 C30.70141602 204.87076172 30.70141602 204.21076172 30.70141602 203.53076172 C31.36141602 203.53076172 32.02141602 203.53076172 32.70141602 203.53076172 C33.88829608 202.15141462 35.07251382 200.76792169 36.18969727 199.33154297 C38.21544239 196.91844606 40.4649716 194.74611155 42.70141602 192.53076172 C43.28249619 191.95458603 43.86357635 191.37841034 44.46226501 190.78477478 C45.79183637 189.46684223 47.12167652 188.14918081 48.45173645 186.83174133 C51.50639686 183.80377714 54.55582395 180.77056592 57.60498047 177.73706055 C59.21812809 176.13404925 60.83305451 174.53282611 62.44970703 172.93334961 C64.78437198 170.62280945 67.1126365 168.30598826 69.43969727 165.98779297 C70.5317321 164.91124199 70.5317321 164.91124199 71.64582825 163.8129425 C72.64267891 162.81631844 72.64267891 162.81631844 73.65966797 161.79956055 C74.24859329 161.21507645 74.83751862 160.63059235 75.44429016 160.02839661 C76.91572466 158.60133891 76.91572466 158.60133891 76.70141602 156.53076172 C77.69141602 156.20076172 78.68141602 155.87076172 79.70141602 155.53076172 C81.4515494 153.84173373 81.4515494 153.84173373 83.13891602 151.78076172 C83.74864258 151.06146484 84.35836914 150.34216797 84.98657227 149.60107422 C90.82099979 142.57795463 90.82099979 142.57795463 91.93579102 133.86279297 C91.61207568 130.64182539 90.38247126 128.2624765 88.70141602 125.53076172 C88.04141602 125.53076172 87.38141602 125.53076172 86.70141602 125.53076172 C86.49000977 124.99580078 86.27860352 124.46083984 86.06079102 123.90966797 C84.18018177 120.61860179 81.61866635 118.11924833 78.95141602 115.46826172 C78.43836914 114.93910156 77.92532227 114.40994141 77.39672852 113.86474609 C73.11745612 109.58009772 68.64123079 106.12466231 62.32641602 106.03076172 C57.31696826 106.1838518 53.40906184 108.19691125 49.70141602 111.53076172 Z " fill="#247D52" transform="translate(286.298583984375,38.46923828125)"/>
<path d="M0 0 C-1.40844718 3.21524305 -3.10344786 5.32183868 -5.625 7.75 C-6.57246094 8.67039063 -6.57246094 8.67039063 -7.5390625 9.609375 C-8.02117187 10.06828125 -8.50328125 10.5271875 -9 11 C-11 10 -11 10 -11.875 7.6875 C-12 5 -12 5 -10.25 2.75 C-6.8363623 0.09494846 -4.19561643 -0.11339504 0 0 Z " fill="#318159" transform="translate(323,163)"/>
<path d="M0 0 C0.66 1.32 1.32 2.64 2 4 C0.35 4.33 -1.3 4.66 -3 5 C-3.33 6.32 -3.66 7.64 -4 9 C-3.34 9.33 -2.68 9.66 -2 10 C-5 10 -5 10 -7 9 C-7 10.65 -7 12.3 -7 14 C-11.75 15.125 -11.75 15.125 -14 14 C-9.38 9.38 -4.76 4.76 0 0 Z " fill="#50916F" transform="translate(299,261)"/>
<path d="M0 0 C-0.375 1.9375 -0.375 1.9375 -1 4 C-1.99 4.495 -1.99 4.495 -3 5 C-3.66 4.67 -4.32 4.34 -5 4 C-5 4.66 -5 5.32 -5 6 C-5.639375 6.12375 -6.27875 6.2475 -6.9375 6.375 C-7.9584375 6.684375 -7.9584375 6.684375 -9 7 C-9.33 7.66 -9.66 8.32 -10 9 C-11.32 8.67 -12.64 8.34 -14 8 C-12.92130607 7.03644756 -11.83681257 6.07938583 -10.75 5.125 C-9.84507812 4.32449219 -9.84507812 4.32449219 -8.921875 3.5078125 C-5.88955539 1.12879752 -3.89348604 0 0 0 Z " fill="#4B8969" transform="translate(138,55)"/>
<path d="M0 0 C4.52615993 3.67832017 8.39424999 7.41086363 12 12 C9.03 11.505 9.03 11.505 6 11 C6 10.34 6 9.68 6 9 C5.030625 8.38125 4.06125 7.7625 3.0625 7.125 C0 5 0 5 -0.9375 2.8125 C-0.958125 2.214375 -0.97875 1.61625 -1 1 C-0.67 0.67 -0.34 0.34 0 0 Z " fill="#5B9779" transform="translate(122,261)"/>
<path d="M0 0 C0.66 1.32 1.32 2.64 2 4 C-0.68841859 6.25245881 -2.64641875 7.88213958 -6 9 C-6 9.99 -6 10.98 -6 12 C-8.31 12.66 -10.62 13.32 -13 14 C-8.88380164 9.08064098 -4.59589638 4.47352044 0 0 Z M-6 10 C-4 11 -4 11 -4 11 Z " fill="#4F8A6D" transform="translate(340,219)"/>
<path d="M0 0 C0.66 0 1.32 0 2 0 C3.05567573 3.52180345 3.2665241 6.89518031 3.375 10.5625 C3.42398437 11.69816406 3.47296875 12.83382812 3.5234375 14.00390625 C3 17 3 17 0.6640625 18.96484375 C-2 20 -2 20 -5 19 C-4.360625 18.21625 -3.72125 17.4325 -3.0625 16.625 C0.00784614 12.71728674 0.11491986 10.80246646 0.0625 5.875 C0.05347656 4.77929688 0.04445313 3.68359375 0.03515625 2.5546875 C0.02355469 1.71164063 0.01195312 0.86859375 0 0 Z " fill="#699D84" transform="translate(377,167)"/>
<path d="M0 0 C0.33 1.65 0.66 3.3 1 5 C1.99 5 2.98 5 4 5 C3.67 6.65 3.34 8.3 3 10 C2.67 9.34 2.34 8.68 2 8 C1.34 8 0.68 8 0 8 C-1.28430862 6.52304509 -2.56580708 5.04193862 -3.78125 3.5078125 C-5.06784671 1.86186905 -5.06784671 1.86186905 -7 0 C-4.3333581 -1.33332095 -2.83319697 -0.67102033 0 0 Z " fill="#468766" transform="translate(100,388)"/>
<path d="M0 0 C0.99 0.33 1.98 0.66 3 1 C1.7260411 3.03833424 0.38938077 5.03852126 -1 7 C-1.66 7 -2.32 7 -3 7 C-3.4021875 8.7015625 -3.4021875 8.7015625 -3.8125 10.4375 C-4.204375 11.613125 -4.59625 12.78875 -5 14 C-5.99 14.33 -6.98 14.66 -8 15 C-6.70970987 8.80660737 -4.0035833 4.84710557 0 0 Z " fill="#5B9377" transform="translate(121,66)"/>
<path d="M0 0 C2.37473224 3.56209836 2.24056249 5.15894399 2.1875 9.375 C2.18105469 10.49648437 2.17460937 11.61796875 2.16796875 12.7734375 C2.01927314 15.62977637 1.65049095 18.22110266 1 21 C0.67 21 0.34 21 0 21 C-1.33257403 6.21867882 -1.33257403 6.21867882 0 0 Z " fill="#5B9275" transform="translate(29,240)"/>
<path d="M0 0 C4.52615993 3.67832017 8.39424999 7.41086363 12 12 C9 12 9 12 6.9921875 10.390625 C6.29351562 9.68421875 5.59484375 8.9778125 4.875 8.25 C4.17117187 7.55390625 3.46734375 6.8578125 2.7421875 6.140625 C1.00172343 4.00211758 0.39999831 2.69089773 0 0 Z " fill="#599070" transform="translate(174,314)"/>
<path d="M0 0 C0.66 0 1.32 0 2 0 C2 0.66 2 1.32 2 2 C4.97 2.495 4.97 2.495 8 3 C8.33 3.99 8.66 4.98 9 6 C11.01508358 6.73323796 11.01508358 6.73323796 13 7 C10.34501768 8.0169313 9.30844625 8.13022151 6.640625 7.00390625 C5.85171875 6.52824219 5.0628125 6.05257813 4.25 5.5625 C3.45078125 5.08941406 2.6515625 4.61632812 1.828125 4.12890625 C1.22484375 3.75636719 0.6215625 3.38382812 0 3 C0 2.01 0 1.02 0 0 Z " fill="#4F8C6D" transform="translate(197,449)"/>
<path d="M0 0 C4.19858555 0.66795679 5.29333585 3.0683606 7.75 6.4375 C5.44 6.1075 3.13 5.7775 0.75 5.4375 C0.75 4.4475 0.75 3.4575 0.75 2.4375 C-0.57 2.1075 -1.89 1.7775 -3.25 1.4375 C-2.25 0.4375 -2.25 0.4375 0 0 Z " fill="#418763" transform="translate(188.25,329.5625)"/>
<path d="M0 0 C0.99 0.33 1.98 0.66 3 1 C1.74157232 4.77528304 0.37506571 5.10667045 -3 7 C-3.66 7.66 -4.32 8.32 -5 9 C-5.99 8.67 -6.98 8.34 -8 8 C-6.625 6.5 -6.625 6.5 -5 5 C-4.34 5 -3.68 5 -3 5 C-2.690625 4.360625 -2.38125 3.72125 -2.0625 3.0625 C-1 1 -1 1 0 0 Z " fill="#5D9577" transform="translate(284,276)"/>
<path d="M0 0 C-1.62163094 3.24326189 -4.74458332 4.6772728 -8 6 C-10.9375 5.75 -10.9375 5.75 -13 5 C-8.94191935 2.2946129 -4.95110601 0 0 0 Z " fill="#438363" transform="translate(238,27)"/>
<path d="M0 0 C0.99 0 1.98 0 3 0 C2.43628586 3.26954202 1.50037734 4.82575883 -1 7 C-1.99 6.67 -2.98 6.34 -4 6 C-1.125 1.125 -1.125 1.125 0 0 Z " fill="#488769" transform="translate(369,189)"/>
<path d="M0 0 C0.66 0 1.32 0 2 0 C1.67 0.99 1.34 1.98 1 3 C0.34 3 -0.32 3 -1 3 C-1.2475 3.763125 -1.495 4.52625 -1.75 5.3125 C-3.10995558 8.2364045 -4.31585826 9.30004356 -7 11 C-7.66 10.67 -8.32 10.34 -9 10 C-7.88200014 8.66079162 -6.75538103 7.32877444 -5.625 6 C-4.99851562 5.2575 -4.37203125 4.515 -3.7265625 3.75 C-3.15679687 3.1725 -2.58703125 2.595 -2 2 C-1.34 2 -0.68 2 0 2 C0 1.34 0 0.68 0 0 Z " fill="#4C876B" transform="translate(317,242)"/>
<path d="M0 0 C2.97 0.99 5.94 1.98 9 3 C8.67 3.66 8.34 4.32 8 5 C5.69 4.67 3.38 4.34 1 4 C0.67 2.68 0.34 1.36 0 0 Z " fill="#4A8763" transform="translate(298,47)"/>
<path d="M0 0 C0 0.66 0 1.32 0 2 C0.66 2 1.32 2 2 2 C2 2.66 2 3.32 2 4 C-1.55780196 3.39009109 -4.6828589 2.4216319 -8 1 C-8 0.67 -8 0.34 -8 0 C-4.71303767 -0.79953138 -3.28976808 -1.09658936 0 0 Z " fill="#427F5F" transform="translate(143,444)"/>
<path d="M0 0 C0.66 0 1.32 0 2 0 C0.71480435 2.86697492 -0.57129254 4.97607712 -3 7 C-3.66 7 -4.32 7 -5 7 C-5.33 5.35 -5.66 3.7 -6 2 C-5.34 2 -4.68 2 -4 2 C-4 2.66 -4 3.32 -4 4 C-3.34 4 -2.68 4 -2 4 C-1.67 3.01 -1.34 2.02 -1 1 C-0.67 0.67 -0.34 0.34 0 0 Z " fill="#4C8B68" transform="translate(439,364)"/>
<path d="M0 0 C-0.33 2.64 -0.66 5.28 -1 8 C-5 3.25 -5 3.25 -5 1 C-2 0 -2 0 0 0 Z " fill="#458565" transform="translate(46,282)"/>
<path d="M0 0 C1.98 0.66 3.96 1.32 6 2 C6 3.98 6 5.96 6 8 C1.3125 4.38671875 1.3125 4.38671875 0 3 C0 2.01 0 1.02 0 0 Z " fill="#5D957B" transform="translate(177,241)"/>
<path d="M0 0 C0.66 1.32 1.32 2.64 2 4 C2.66 4 3.32 4 4 4 C4.66 5.98 5.32 7.96 6 10 C3.525 9.01 3.525 9.01 1 8 C0.67 5.36 0.34 2.72 0 0 Z " fill="#4A886A" transform="translate(457,214)"/>
<path d="M0 0 C1.65 0.33 3.3 0.66 5 1 C2.63707344 3.52588702 1.33537489 4.88820837 -2 6 C-1.49396008 3.83125748 -1.00016187 2.00032373 0 0 Z " fill="#538E73" transform="translate(284,458)"/>
<path d="M0 0 C0.33 0.99 0.66 1.98 1 3 C-0.65 4.65 -2.3 6.3 -4 8 C-4.99 7.67 -5.98 7.34 -7 7 C-5.37660195 5.29115995 -3.70680947 3.62553283 -2 2 C-1.34 2 -0.68 2 0 2 C0 1.34 0 0.68 0 0 Z " fill="#659C82" transform="translate(244,317)"/>
<path d="M0 0 C1.32 0.66 2.64 1.32 4 2 C3.34 2 2.68 2 2 2 C1.67 2.99 1.34 3.98 1 5 C-0.98 5.33 -2.96 5.66 -5 6 C-3.35 4.02 -1.7 2.04 0 0 Z " fill="#3D8260" transform="translate(307,253)"/>
<path d="M0 0 C0.66 0.99 1.32 1.98 2 3 C-3.14285714 7.42857143 -3.14285714 7.42857143 -7 8 C-6.67 7.34 -6.34 6.68 -6 6 C-5.34 6 -4.68 6 -4 6 C-3.34 4.68 -2.68 3.36 -2 2 C-1.34 2 -0.68 2 0 2 C0 1.34 0 0.68 0 0 Z " fill="#619779" transform="translate(326,233)"/>
<path d="M0 0 C0.66 0 1.32 0 2 0 C1.67 0.99 1.34 1.98 1 3 C0.34 3 -0.32 3 -1 3 C-1.2475 3.639375 -1.495 4.27875 -1.75 4.9375 C-3 7 -3 7 -5.078125 7.62890625 C-5.71234375 7.75136719 -6.3465625 7.87382812 -7 8 C-6.02133662 6.85373678 -5.04205413 5.70800212 -4.0625 4.5625 C-3.51722656 3.92441406 -2.97195313 3.28632813 -2.41015625 2.62890625 C-1.63204305 1.73008851 -0.84063472 0.84063472 0 0 Z " fill="#4E876A" transform="translate(356,203)"/>
<path d="M0 0 C2.91517292 1.07401108 4.77810176 1.77810176 7 4 C5.02 4.66 3.04 5.32 1 6 C1 5.01 1 4.02 1 3 C0.34 3 -0.32 3 -1 3 C-0.67 2.01 -0.34 1.02 0 0 Z " fill="#519275" transform="translate(420,119)"/>
<path d="M0 0 C0.66 1.32 1.32 2.64 2 4 C-1.01031744 4.93423645 -1.86650268 5.04449911 -5 4 C-5.33 4.66 -5.66 5.32 -6 6 C-6.66 5.34 -7.32 4.68 -8 4 C-5.36 2.68 -2.72 1.36 0 0 Z " fill="#669D7E" transform="translate(92,112)"/>
<path d="M0 0 C3.63 0 7.26 0 11 0 C6.09396701 3.67952474 4.82490317 3.29124516 -1 3 C-0.67 2.01 -0.34 1.02 0 0 Z " fill="#729F8A" transform="translate(158,51)"/>
<path d="M0 0 C2.625 0.25 2.625 0.25 4.4375 1.75 C4.829375 2.245 5.22125 2.74 5.625 3.25 C3.645 4.24 3.645 4.24 1.625 5.25 C-0.025 3.93 -1.675 2.61 -3.375 1.25 C-2.375 0.25 -2.375 0.25 0 0 Z " fill="#4C8F6C" transform="translate(77.375,375.75)"/>
<path d="M0 0 C1.98 1.65 3.96 3.3 6 5 C5.34 5.66 4.68 6.32 4 7 C4 6.34 4 5.68 4 5 C3.34 5 2.68 5 2 5 C2 5.66 2 6.32 2 7 C1.34 7 0.68 7 0 7 C0 4.69 0 2.38 0 0 Z " fill="#4D8E6C" transform="translate(147,287)"/>
<path d="M0 0 C-4.75 3.875 -4.75 3.875 -7 5 C-7 3.35 -7 1.7 -7 0 C-3.86650268 -1.04449911 -3.01031744 -0.93423645 0 0 Z " fill="#579070" transform="translate(344,145)"/>
<path d="M0 0 C-1 2 -1 2 -4.0625 3.125 C-5.5165625 3.558125 -5.5165625 3.558125 -7 4 C-7.33 3.01 -7.66 2.02 -8 1 C-3.375 -1.125 -3.375 -1.125 0 0 Z " fill="#498A69" transform="translate(277,467)"/>
<path d="M0 0 C2.475 0.495 2.475 0.495 5 1 C5.33 1.99 5.66 2.98 6 4 C5.01 4.33 4.02 4.66 3 5 C2.01 4.34 1.02 3.68 0 3 C0 2.01 0 1.02 0 0 Z " fill="#3A855E" transform="translate(412,378)"/>
<path d="M0 0 C2.125 0.375 2.125 0.375 4 1 C1.03 3.475 1.03 3.475 -2 6 C-2 2 -2 2 0 0 Z " fill="#518D6D" transform="translate(315,168)"/>
<path d="M0 0 C0.33 0.99 0.66 1.98 1 3 C1.66 3.33 2.32 3.66 3 4 C0.36 4.66 -2.28 5.32 -5 6 C-3.63016497 2.83884224 -3.0109362 2.0072908 0 0 Z " fill="#498868" transform="translate(66,127)"/>
<path d="M0 0 C0.66 0.66 1.32 1.32 2 2 C-0.97 4.475 -0.97 4.475 -4 7 C-3.6875 4.625 -3.6875 4.625 -3 2 C-2.01 1.34 -1.02 0.68 0 0 Z " fill="#599176" transform="translate(256,230)"/>
<path d="M0 0 C0.66 0.33 1.32 0.66 2 1 C2 2.65 2 4.3 2 6 C0.35 6.33 -1.3 6.66 -3 7 C-1.125 1.125 -1.125 1.125 0 0 Z " fill="#5C957B" transform="translate(36,223)"/>
<path d="M0 0 C2.475 0.99 2.475 0.99 5 2 C1.25 5 1.25 5 -1 5 C-1.33 4.01 -1.66 3.02 -2 2 C-1.34 2 -0.68 2 0 2 C0 1.34 0 0.68 0 0 Z " fill="#458A67" transform="translate(364,440)"/>
<path d="M0 0 C1.9375 0.75 1.9375 0.75 4 2 C4.75 4.125 4.75 4.125 5 6 C4.01 6.495 4.01 6.495 3 7 C0 2.25 0 2.25 0 0 Z " fill="#5F9078" transform="translate(103,398)"/>
<path d="M0 0 C-1.24546405 3.73639216 -2.63404953 4.18756513 -6 6 C-5.67 4.35 -5.34 2.7 -5 1 C-2 0 -2 0 0 0 Z " fill="#538F6E" transform="translate(433,371)"/>
<path d="M0 0 C0.66 1.32 1.32 2.64 2 4 C-0.31 4.66 -2.62 5.32 -5 6 C-3.35 4.02 -1.7 2.04 0 0 Z " fill="#4B8A69" transform="translate(299,261)"/>
<path d="M0 0 C0.66 0.33 1.32 0.66 2 1 C1.34 3.64 0.68 6.28 0 9 C-0.66 9 -1.32 9 -2 9 C-1.34 6.03 -0.68 3.06 0 0 Z " fill="#508B6D" transform="translate(32,231)"/>
<path d="M0 0 C0.763125 0.20625 1.52625 0.4125 2.3125 0.625 C-0.2529594 3.1904594 -2.16436668 3.16546087 -5.6875 3.625 C-5.6875 2.965 -5.6875 2.305 -5.6875 1.625 C-2.6875 -0.375 -2.6875 -0.375 0 0 Z " fill="#418769" transform="translate(266.6875,470.375)"/>
<path d="M0 0 C3.625 0.375 3.625 0.375 7 1 C7 1.66 7 2.32 7 3 C4.03 2.67 1.06 2.34 -2 2 C-1.34 1.34 -0.68 0.68 0 0 Z " fill="#588F70" transform="translate(187,447)"/>
<path d="M0 0 C0.33 0 0.66 0 1 0 C1 1.65 1 3.3 1 5 C-0.98 5.33 -2.96 5.66 -5 6 C-3.35830472 3.97945196 -1.69088222 1.97956942 0 0 Z " fill="#488A68" transform="translate(266,295)"/>
<path d="M0 0 C2.88575819 0.39803561 3.82189513 0.79009069 5.75 3.0625 C6.1625 3.701875 6.575 4.34125 7 5 C4.625 4.75 4.625 4.75 2 4 C0.6875 1.9375 0.6875 1.9375 0 0 Z " fill="#50896D" transform="translate(155,297)"/>
<path d="M0 0 C3.40424844 1.13474948 4.21653709 1.96811304 6 5 C5.67 5.99 5.34 6.98 5 8 C2.5 5.6875 2.5 5.6875 0 3 C0 2.01 0 1.02 0 0 Z " fill="#5A8D70" transform="translate(193,257)"/>
<path d="M0 0 C0.99 0 1.98 0 3 0 C4.4606285 2.64738916 5 3.89448334 5 7 C4.01 6.67 3.02 6.34 2 6 C0.8125 2.9375 0.8125 2.9375 0 0 Z " fill="#51886B" transform="translate(384,78)"/>
</svg>
